<svg xmlns="http://www.w3.org/2000/svg" width="1365.333" height="1365.333" preserveAspectRatio="xMidYMid meet" version="1.0" viewBox="0 0 1024 1024"><metadata>Created by potrace 1.11, written by Peter Selinger 2001-2013</metadata><g fill="#000" stroke="none"><path d="M4290 8713 c-1666 -26 -2819 -102 -3189 -209 -228 -67 -408 -178 -582 -361 -129 -136 -227 -299 -287 -478 -156 -469 -262 -1908 -223 -3030 35 -1010 114 -1712 233 -2060 116 -338 413 -639 760 -769 421 -157 1950 -250 4128 -250 1976 0 3493 78 3988 205 401 102 743 417 880 810 116 330 197 1040 232 2029 30 853 -14 1877 -111 2545 -77 529 -180 778 -423 1021 -185 185 -392 298 -646 352 -466 100 -1404 161 -2965 192 -428 9 -1361 10 -1795 3z m835 -1973 c690 -43 1321 -174 1865 -387 63 -24 212 -92 330 -151 190 -94 222 -113 276 -166 71 -71 94 -126 94 -225 0 -120 -75 -232 -189 -285 -36 -16 -65 -21 -131 -21 l-85 0 -185 97 c-231 120 -335 164 -575 244 -316 104 -647 177 -1015 223 -250 31 -389 41 -685 48 -554 12 -1039 -40 -1505 -163 -151 -40 -203 -41 -285 -5 -77 34 -121 76 -157 149 -29 58 -33 76 -32 142 0 121 62 223 166 276 92 46 467 133 753 173 145 21 422 49 535 54 164 8 681 6 825 -3z m-10 -1175 c701 -68 1356 -264 1880 -564 131 -75 166 -107 195 -174 43 -99 22 -214 -52 -289 -56 -55 -102 -73 -188 -73 -83 0 -79 -1 -264 103 -146 82 -365 177 -561 245 -840 287 -1830 324 -2641 98 -60 -17 -124 -31 -142 -31 -97 0 -189 54 -237 141 -39 70 -42 170 -8 235 29 55 78 103 128 125 170 75 719 176 1086 199 192 12 606 4 804 -15z m-174 -1090 c424 -18 912 -127 1298 -292 196 -84 439 -214 487 -261 135 -134 42 -355 -151 -357 -53 0 -69 5 -130 41 -344 204 -740 343 -1159 409 -247 38 -421 48 -715 42 -352 -7 -643 -41 -1003 -118 -170 -36 -215 -30 -285 34 -88 81 -92 205 -10 294 46 51 72 60 295 103 310 61 608 98 892 110 170 7 213 6 481 -5z" transform="translate(0.000000,1024.000000) scale(0.100000,-0.100000)"/></g></svg>